<?xml version="1.0" encoding="UTF-8" standalone="no" ?>
<!DOCTYPE svg PUBLIC "-//W3C//DTD SVG 1.1//EN" "http://www.w3.org/Graphics/SVG/1.1/DTD/svg11.dtd">
<svg xmlns="http://www.w3.org/2000/svg" xmlns:xlink="http://www.w3.org/1999/xlink" version="1.1" width="1000" height="640" viewBox="0 0 1000 640" xml:space="preserve">
<desc>Created with Fabric.js 5.3.0</desc>
<defs>
</defs>
<g transform="matrix(1.2683978456 0 0 1.2683978456 91.8557436822 395.3555487584)" id="K4wG_c9WqyjbRMkC0jcA8"  >
<path style="stroke: rgb(0,0,0); stroke-width: 0; stroke-dasharray: none; stroke-linecap: butt; stroke-dashoffset: 0; stroke-linejoin: miter; stroke-miterlimit: 4; fill: rgb(152,219,178); fill-rule: nonzero; opacity: 1;" vector-effect="non-scaling-stroke"  transform=" translate(0, 0)" d="M -25.21368 -2.5641 L -71.36753 -31.62393 L -49.64531 -84.61538 L 21.794859999999993 -84.61538 L 71.36751 -2.5640999999999963 L -25.21369 84.61539 z" stroke-linecap="round" />
</g>
<g transform="matrix(1.2683978456 0 0 1.2683978456 265.6016075138 217.1183830991)" id="Rqbv09Fhb_ZiINBisF6bk"  >
<path style="stroke: rgb(0,0,0); stroke-width: 0; stroke-dasharray: none; stroke-linecap: butt; stroke-dashoffset: 0; stroke-linejoin: miter; stroke-miterlimit: 4; fill: rgb(152,219,178); fill-rule: nonzero; opacity: 1;" vector-effect="non-scaling-stroke"  transform=" translate(0, 0)" d="M -183.76068 31.19658 L -183.76068 -41.45299 L -104.27350000000001 -41.45299 L -104.27350000000001 -67.09402 L -153.84615000000002 -67.09402 L -153.84615000000002 -92.73505 L -56.367290000000025 -92.73505 L 23.076929999999976 -111.53847 L 183.76068999999998 -92.73505 L 183.76068999999998 -56.83761 L 142.73504999999997 -56.83761 L 142.73504999999997 -5.55556 L 89.66777999999996 55.4829 L 55.555559999999964 55.4829 L 11.111119999999964 111.53846 L -16.239310000000035 68.80342 L -43.589740000000035 91.88034 L -67.52136000000003 91.88034 L -104.27350000000003 31.196580000000004 z" stroke-linecap="round" />
</g>
<g transform="matrix(1.1929787068 0 0 1.2683978456 354.3488740589 342.6516167263)" id="CE9Mf9nzEcKQw6K1OWTQ-"  >
<path style="stroke: rgb(0,0,0); stroke-width: 0; stroke-dasharray: none; stroke-linecap: butt; stroke-dashoffset: 0; stroke-linejoin: miter; stroke-miterlimit: 4; fill: rgb(152,219,178); fill-rule: nonzero; opacity: 1;" vector-effect="non-scaling-stroke"  transform=" translate(0, 0)" d="M -18.37607 -11.88595 L -18.37607 11.88594 L 18.37607 11.88594 L 18.37607 -11.88595 z" stroke-linecap="round" />
</g>
<g transform="matrix(1.2683978456 0 0 1.2683978456 458.2817879685 240.4974734978)" id="frOzcKyRU85vuQGhHboS5"  >
<path style="stroke: rgb(0,0,0); stroke-width: 0; stroke-dasharray: none; stroke-linecap: butt; stroke-dashoffset: 0; stroke-linejoin: miter; stroke-miterlimit: 4; fill: rgb(152,219,178); fill-rule: nonzero; opacity: 1;" vector-effect="non-scaling-stroke"  transform=" translate(0, 0)" d="M 6.41026 -19.61458 L -29.487180000000002 19.61458 L -5.555560000000003 19.61458 L 29.48718 -19.61458 z" stroke-linecap="round" />
</g>
<g transform="matrix(1.2683978456 0 0 1.2683978456 455.5501193572 343.2858156491)" id="mI3AfZqljBY1AWrvkdDfD"  >
<path style="stroke: rgb(0,0,0); stroke-width: 0; stroke-dasharray: none; stroke-linecap: butt; stroke-dashoffset: 0; stroke-linejoin: miter; stroke-miterlimit: 4; fill: rgb(152,219,178); fill-rule: nonzero; opacity: 1;" vector-effect="non-scaling-stroke"  transform=" translate(0, 0)" d="M -32.14082 -12.38595 L -32.14082 12.38594 L 32.14081000000001 12.38594 L -32.14082 -12.38595" stroke-linecap="round" />
</g>
<g transform="matrix(1.2683978456 0 0 1.2683978456 455.5501193572 437.3999775174)" id="zcrYFEAGUAsnCvm2-vA-n"  >
<path style="stroke: rgb(0,0,0); stroke-width: 0; stroke-dasharray: none; stroke-linecap: butt; stroke-dashoffset: 0; stroke-linejoin: miter; stroke-miterlimit: 4; fill: rgb(152,219,178); fill-rule: nonzero; opacity: 1;" vector-effect="non-scaling-stroke"  transform=" translate(0, 0)" d="M -79.39248 37.6867 L -79.39248 -2.643969999999996 L 0.42217999999999734 -37.68671 L 79.39247 -2.643969999999996 L 79.39247 37.6867 L -79.39248 37.6867" stroke-linecap="round" />
</g>
<g transform="matrix(1.2683978456 0 0 1.2683978456 744.891446963 219.771333399)" id="FHl0WsL5KC8vYgU6TqMp2"  >
<path style="stroke: rgb(0,0,0); stroke-width: 0; stroke-dasharray: none; stroke-linecap: butt; stroke-dashoffset: 0; stroke-linejoin: miter; stroke-miterlimit: 4; fill: rgb(152,219,178); fill-rule: nonzero; opacity: 1;" vector-effect="non-scaling-stroke"  transform=" translate(0, 0)" d="M -160.25641 -96.87834 L -160.25641 -61.83559999999999 L -55.12819999999999 -61.83559999999999 L 17.521370000000005 96.87835000000001 L 41.45299 16.34042000000001 L 104.70085 16.34042000000001 L 160.25641000000002 -70.38260999999999 L 104.70085000000002 -96.87833999999998 z" stroke-linecap="round" />
</g>
<g transform="matrix(1.2683978456 0 0 1.2683978456 857.6379221281 461.7922437791)" id="h3e-i924Hxdv0HzqKAoz1"  >
<path style="stroke: rgb(0,0,0); stroke-width: 0; stroke-dasharray: none; stroke-linecap: butt; stroke-dashoffset: 0; stroke-linejoin: miter; stroke-miterlimit: 4; fill: rgb(152,219,178); fill-rule: nonzero; opacity: 1;" vector-effect="non-scaling-stroke"  transform=" translate(0, 0)" d="M -71.86752 -81.54407 L -71.86752 81.54406 L 71.86752 -57.41748000000001 z" stroke-linecap="round" />
</g>
<g transform="matrix(1.2683978456 0 0 1.2683978456 592.0761308058 519.8837810071)" id="FxaJEYRLhQfe724jt26pT"  >
<path style="stroke: rgb(0,0,0); stroke-width: 0; stroke-dasharray: none; stroke-linecap: butt; stroke-dashoffset: 0; stroke-linejoin: miter; stroke-miterlimit: 4; fill: rgb(152,219,178); fill-rule: nonzero; opacity: 1;" vector-effect="non-scaling-stroke"  transform=" translate(0, 0)" d="M -10.00641 -13.168 L -10.50641 13.168 L 10.50641 13.168 L 10.50641 -13.168 z" stroke-linecap="round" />
</g>
</svg>