<svg xmlns="http://www.w3.org/2000/svg" width="788.504" height="417.328" viewBox="0 0 788.504 417.328">
  <g id="グループ_1" data-name="グループ 1" transform="translate(-586.713 -309.267)">
    <path id="path62" d="M375.085,110.353l-24.273,9.334c2.8,5.041,5.791,10.268,8.4,15.869H348.945v-22.4H316.271v22.4H274.263v-9.333H218.252v29.871h13.07v20.538h-11.2V205.57h11.2v36.036c-4.854.934-9.709,1.68-14,2.24l2.8,28.938c12.883-2.054,31.18-6.161,46.3-10.082l9.712,13.818c6.348-4.294,12.321-8.59,18.109-12.885l1.492,23.151c10.455.747,17.364.933,20.538.933,30.62,0,32.674-2.426,32.674-37.339V234.323c7.655,17.924,46.532,55.059,147.178,55.059-4.414-15.623-6.224-27.981-5.7-48.619-73.795,0-111.42-9.054-119.448-22.683A246.366,246.366,0,0,0,395.622,178.5l-26.139-12.133c-4.294,8.028-8.776,15.308-13.07,22.03-2.8-6.721-5.227-13.442-7.468-20.164v-4.669h44.811V135.557h-5.6c-4.107-8.775-8.4-17.361-13.07-25.2Zm257.421.073a137.686,137.686,0,0,0-37.339,6.531h0q-4.358,1.4-8.616,3.086-.4.152-.793.306-3.983,1.605-7.861,3.456-.638.3-1.273.608-3.632,1.778-7.154,3.766-.853.479-1.7.971-3.339,1.944-6.565,4.072-.951.631-1.892,1.277-3.051,2.084-5.987,4.329-1.049.81-2.081,1.639-2.823,2.237-5.526,4.62-1.008.91-2,1.84-2.606,2.384-5.088,4.9-1.055,1.1-2.085,2.225-2.33,2.461-4.537,5.035-1.072,1.3-2.112,2.625-2.046,2.493-3.974,5.081-1.122,1.58-2.2,3.192-1.731,2.454-3.354,4.982-1.227,2.021-2.384,4.083-1.322,2.2-2.561,4.45-2.33,4.376-4.34,8.911-2.011,4.567-3.687,9.27A137.586,137.586,0,0,0,688.025,375.84l58.508,99.405a16.39,16.39,0,0,0,21.9,6.036l.525-.287a15.192,15.192,0,0,0,5.851-21.218l-58.44-99.28a137.687,137.687,0,0,0,46.613-56.823l.17-.4q.561-1.281,1.1-2.572.116-.278.23-.556.567-1.386,1.1-2.784.1-.272.207-.544.573-1.51,1.111-3.033l.051-.155q.527-1.5,1.02-3.018l.117-.374q.488-1.509.941-3.029.072-.247.143-.495.414-1.41.8-2.829.078-.289.155-.578.37-1.4.71-2.8.084-.349.166-.7.365-1.533.7-3.075l.015-.073q.323-1.53.612-3.067.057-.3.113-.6.284-1.536.533-3.078.033-.21.066-.42.231-1.469.431-2.943.03-.223.058-.446.223-1.68.4-3.366.007-.076.015-.151.179-1.688.317-3.381l.007-.113q.128-1.6.219-3.207.015-.266.029-.533.081-1.5.129-3.007.008-.2.015-.408.041-1.469.051-2.939,0-.429,0-.857,0-1.3-.022-2.591-.009-.5-.022-.993-.036-1.428-.1-2.856-.014-.257-.029-.514-.079-1.618-.2-3.233l-.015-.14q-.112-1.507-.257-3.011-.036-.361-.073-.721-.152-1.5-.336-2.992-.036-.276-.073-.552-.178-1.39-.385-2.776-.05-.338-.1-.676-.218-1.408-.465-2.81-.073-.416-.148-.831-.244-1.342-.514-2.678-.08-.4-.162-.8-.292-1.4-.612-2.791-.08-.346-.162-.691-.315-1.342-.657-2.678-.108-.414-.219-.827-.339-1.29-.7-2.572l-.128-.453q-.44-1.529-.914-3.048l-.136-.427q-.421-1.326-.869-2.644a137.677,137.677,0,0,0-134.916-93.407Zm-495.47,5.526v34.729L130.5,151.8V125.29H98.763v32.3l-8.4,1.492v-6.72H77.293V118.755H44.619v33.607H31.548v28.005h13.07v67.959c-4.854,1.12-9.709,2.241-14,2.988l2.8,29.871a392.7,392.7,0,0,0,58.814-16.8l-.933-28.938q-6.441,2.24-14,4.48V180.368h6.161l1.307,11.2,14-2.614v69.828c0,25.205,3.734,28.005,47.61,28.005,58.065,0,61.985-2.988,64.412-54.145L189.872,227.6c11.762-2.054,15.31-14.191,15.31-72.442v-16.8l-40.142,7.279V115.953ZM451.9,130.783c-29.561,0-50.2,19.186-50.2,46.673,0,20.537,11.3,35.269,26.967,35.269,16.492,0,24.894-15.871,32.051-63.169,10.372,2.9,17.221,10.889,17.221,22.713,0,13.692-8.4,23.443-21.784,25.414l5.7,17.115c21.471-2.9,35.269-19.5,35.269-42.529,0-26.553-19.088-41.487-45.226-41.487Zm-10.682,19.291c-4.045,27.383-8.92,42.941-13.587,42.941-3.527,0-7.781-8.506-7.781-15.559,0-12.447,9.129-23.337,21.369-27.382Zm-180.022,6.021h10.271v7.468h44.807v26.7c-7.281-7.842-15.494-15.867-24.27-23.9l-17.738,14.562v-4.295h-13.07ZM175.122,175.14c-.56,23.9-.933,23.9-3.547,23.9-1.12,0-3.734-.183-6.535-.371V177.006Zm-38.087,6.909v58.062h28.005V202.772l5.6,24.832c3.547.186,6.722.374,9.149.374-1.12,29.873-1.68,29.871-23.152,29.871-25.952,0-26.139-.186-26.139-6.535V183.168Zm137.228,5.6c9.149,9.149,17.738,17.927,25.206,26.328l16.8-14.565v27.82L306,214.909a377.934,377.934,0,0,1-30.245,24.832l-.563-8.031c-4.294,1.12-8.962,2.429-14,3.736V205.571h13.07Zm42.008,57.692v6.909c0,6.535,0,6.535-4.665,6.535-1.494,0-5.417-.186-10.645-.559,5.414-4.294,10.642-8.59,15.31-12.885ZM89,289.746c-1.752,8.953-3.7,17.325-6.032,25.3H30.616V472.7H66.621v-7.785H154.2V472.7h36.006V449.74s24.946-14.3,33.9-18.887c2.919-1.362,6.2-3.7,9.115-5.254-6.228,11.872-12.652,22.964-20.632,35.42l27.25,16.545a286.3,286.3,0,0,0,25.3-45.74L242.175,420.73a170.4,170.4,0,0,0,61.5-61.888h11.483c-6.228,17.127-18.878,30.75-41.26,45.736l18.49,21.021-25.3,2.334c2.53,17.906,4.477,33.281,5.84,48.656l33.086-2.92c-1.362-14.986-3.111-30.749-5.836-48.071,15.181-10.7,28.218-25.693,37.755-42.042,7.98,14.4,18.49,27.055,30.362,36.2l-23.355,12.065c9.537,15.96,17.129,30.169,24.33,44.766l28.221-14.6c-6.228-12.262-12.845-24.72-20.436-37.955l20.436-23.355c-19.852-13.624-31.529-26.077-37.562-41.842h31.722v-29.2H380.944l13.625-18.49A286.616,286.616,0,0,0,363.428,291.7l-8.756,11.287V296.56H319.637v33.086h-4.865V309.211H277.4a114.983,114.983,0,0,0,6.229-9.73l-29.2-5.84c-11.094,13.819-22.577,24.523-38.926,36.006L227.579,353,212.59,363.707c6.228,7.98,13.04,16.541,19.268,24.715a122.256,122.256,0,0,1-19.268,10.316,70.633,70.633,0,0,1-22.381,5.526V315.051H121.118c1.752-6.812,3.308-13.82,4.865-21.41Zm337.946,4.038q-1.556,4.979-3.113,9.338H401.017v15.555h16.492a198.086,198.086,0,0,1-17.531,29.044l16.076,9.334c9.439-15.144,16.493-20.741,25.932-20.741,2.593,0,4.669.414,6.225,1.658-18.463,7.676-28.421,17.632-28.421,28.938,0,12.758,12.864,20.228,34.646,20.228a244.464,244.464,0,0,0,34.642-3.218l-2.387-16.386c-14.418,2.386-24.479,3.528-32.051,3.528-10.165,0-15.143-1.972-15.143-6.017,0-3.941,4.566-7.885,13.175-11.619.1,3.008.208,6.431.208,10.373h19.707a109.373,109.373,0,0,0-1.039-16.492c5.6-1.452,11.93-2.9,18.879-4.148l-2.8-15.974c-7.676,1.349-14.628,2.906-21.059,4.669-3.942-6.224-9.958-9.024-18.464-9.024a53.527,53.527,0,0,0-13.172,1.764c.933-1.971,1.971-3.945,2.9-5.915h47.194V303.121h-40.66c.83-1.971,1.555-4.047,2.282-6.225Zm-72.276,24.183c6.228,3.893,12.064,7.787,17.708,11.68H354.672v-11.68ZM263,334.511h16.934a92.035,92.035,0,0,1-7.007,12.847L263,334.511Zm-196.378,8.76H154.2v14.6H66.621Zm174.386,3.891c5.255,6.617,10.7,13.82,15.959,20.632-1.557,1.752-3.5,3.5-5.254,5.254-5.45-7.2-11.288-14.4-16.737-21.41a69.118,69.118,0,0,0,6.032-4.476ZM589.277,383.1l-10.894,5.6a109.063,109.063,0,0,1,10.894,19.6l10.992-5.084A103.5,103.5,0,0,0,589.277,383.1Zm-522.656.066H154.2v14.6H66.621Zm608.021,4.6c-9.232,5.7-26.346,15.455-40.66,23.027-20.538,11.1-23.858,14.21-23.858,22.611,0,8.194,2.7,10.788,24.066,23.442,19.708,11.824,28.835,17.423,42.941,26.343l10.788-16.077c-9.958-6.327-36.2-21.573-43.98-25.618-10.269-5.7-11-6.224-11-8.091,0-1.556,2.386-3.112,11.721-7.883,6.742-3.527,31.22-16.492,40.244-21.678Zm-101.441.827-8.922,4.877H509.51v16.594h36.618c-10.995,9.543-26.035,15.248-47.61,18.256l.619,16.6,29.667-2.074c-6.223,4.253-8.922,8.918-8.922,15.038,0,13.9,14.212,21.678,39.417,21.678a102.842,102.842,0,0,0,21.78-2.074l-2.074-16.6a84.124,84.124,0,0,1-18.668,2.078c-13.8,0-19.71-2.7-19.71-9.024,0-7.676,8.817-10.79,33.192-11.827l14.524-.619-.624-16.6-46.159,3.32a164.31,164.31,0,0,0,30.185-18.362c.726,1.245,1.348,2.593,2.074,4.046l11-5.6a98.68,98.68,0,0,0-11.615-19.71Zm-125.51,4.359c-29.561,0-50.2,19.186-50.2,46.673,0,20.537,11.308,35.269,26.97,35.269,16.492,0,24.894-15.87,32.051-63.169,10.372,2.9,17.217,10.889,17.217,22.713,0,13.692-8.4,23.443-21.784,25.414l5.708,17.115c21.471-2.9,35.266-19.5,35.266-42.529,0-26.554-19.088-41.487-45.226-41.487Zm-10.682,19.291c-4.045,27.383-8.92,42.941-13.587,42.941-3.527,0-7.781-8.506-7.781-15.559,0-12.447,9.129-23.337,21.369-27.382Zm-98.88,9.848-32.115,6.814c5.06,17.322,9.151,32.5,12.654,47.682l32.111-6.811c-3.5-14.986-7.785-30.753-12.65-47.686Zm-271.506.974H154.2v14.6H66.621Z" transform="translate(556.207 243.19)" fill="#00a65d" stroke="#333" stroke-width="0.2"/>
    <path id="path54" d="M146.371,286.79c58.065,0,61.986-2.987,64.413-54.144L189.874,227.6c11.762-2.054,15.31-14.19,15.31-72.441v-16.8l-40.142,7.281V115.955H137.036v34.727L130.5,151.8V125.29H98.762v32.3l-8.4,1.494v-6.721H77.291V118.756H44.617v33.607H31.548v28.006H44.617v67.96c-4.854,1.12-9.709,2.24-14,2.987l2.8,29.873a392.683,392.683,0,0,0,58.812-16.8l-.934-28.939q-6.441,2.24-14,4.481V180.368h6.161l1.307,11.2,14-2.614v69.828c0,25.205,3.734,28.006,47.61,28.006Zm-9.335-46.676h28.006V202.773l5.6,24.832c3.547.186,6.721.374,9.149.374-1.12,29.873-1.68,29.873-23.151,29.873-25.952,0-26.139-.186-26.139-6.535V183.169l6.535-1.12Zm28.006-41.448V177.007l10.082-1.867c-.56,23.9-.934,23.9-3.547,23.9-1.12,0-3.734-.186-6.535-.374Zm151.231,89.058c30.62,0,32.673-2.427,32.673-37.341V234.326c7.655,17.924,46.531,55.057,147.177,55.057-4.414-15.623-6.224-27.978-5.7-48.615-73.795,0-111.421-9.055-119.449-22.685A246.351,246.351,0,0,0,395.622,178.5l-26.139-12.136c-4.294,8.028-8.775,15.31-13.069,22.031-2.8-6.721-5.228-13.443-7.468-20.164v-4.668h44.809V135.559h-5.6c-4.108-8.775-8.4-17.363-13.069-25.205l-24.272,9.335c2.8,5.041,5.788,10.269,8.4,15.87H348.946v-22.4H316.273v22.4H274.264v-9.335H218.253V156.1h13.069v20.538h-11.2v28.939h11.2v36.034c-4.854.934-9.709,1.68-14,2.24l2.8,28.939c12.883-2.054,31.18-6.161,46.3-10.082l9.709,13.816c6.348-4.294,12.323-8.588,18.11-12.883l1.494,23.151c10.455.747,17.363.934,20.537.934Zm-16.8-73.749,16.8-14.563V227.23L306,214.908a377.922,377.922,0,0,1-30.246,24.832l-.56-8.028c-4.294,1.12-8.962,2.427-14,3.734V205.573h13.069V187.649c9.148,9.149,17.737,17.924,25.205,26.325ZM271.464,156.1v7.468h44.809v26.7c-7.281-7.842-15.5-15.87-24.272-23.9l-17.737,14.563v-4.294H261.195V156.1Zm44.809,89.245v6.908c0,6.535,0,6.535-4.668,6.535-1.494,0-5.414-.186-10.642-.56,5.414-4.294,10.642-8.588,15.31-12.883Z" transform="translate(556.207 243.196)" fill="#00a65d"/>
    <path id="path55" d="M135.836,180.051l5.7,17.115c21.471-2.9,35.266-19.5,35.266-42.527,0-26.554-19.085-41.49-45.224-41.49-29.562,0-50.2,19.189-50.2,46.676,0,20.538,11.306,35.266,26.969,35.266,16.492,0,24.894-15.87,32.051-63.168,10.372,2.9,17.218,10.891,17.218,22.716C157.618,168.33,149.217,178.08,135.836,180.051ZM120.9,132.441c-4.045,27.383-8.92,42.942-13.588,42.942-3.527,0-7.779-8.505-7.779-15.559,0-12.447,9.128-23.338,21.367-27.383Z" transform="translate(876.523 260.83)" fill="#333"/>
    <path id="path56" d="M30.615,317.846H66.621v-7.785H154.2v7.785H190.21V160.2H121.117c1.752-6.812,3.309-13.819,4.866-21.409L89,134.9c-1.752,8.953-3.7,17.322-6.033,25.3H30.615Zm36.006-49.63H154.2v14.6H66.621Zm0-39.9H154.2v14.6H66.621Zm0-39.9H154.2v14.6H66.621ZM224.107,276c2.919-1.362,6.2-3.7,9.115-5.256-6.228,11.872-12.651,22.966-20.631,35.422l27.248,16.543a286.3,286.3,0,0,0,25.3-45.738L242.175,265.88a170.4,170.4,0,0,0,61.5-61.892h11.483c-6.228,17.127-18.879,30.751-41.261,45.738l18.49,21.02-25.3,2.335c2.53,17.906,4.476,33.281,5.839,48.657l33.087-2.919c-1.362-14.986-3.114-30.751-5.839-48.073,15.181-10.7,28.221-25.691,37.758-42.04,7.98,14.4,18.49,27.053,30.362,36.2l-23.355,12.067c9.537,15.959,17.127,30.167,24.329,44.765l28.221-14.6c-6.228-12.261-12.846-24.718-20.436-37.953l20.436-23.355c-19.852-13.624-31.53-26.08-37.563-41.845H391.65V174.794h-10.7l13.624-18.49a286.6,286.6,0,0,0-31.141-19.463l-8.758,11.288v-6.423H319.638v33.087h-4.866V154.358H277.4a114.948,114.948,0,0,0,6.228-9.731l-29.194-5.839c-11.094,13.819-22.577,24.523-38.926,36.006l12.067,23.355-14.986,10.7c6.228,7.98,13.04,16.543,19.268,24.718a122.238,122.238,0,0,1-19.268,10.315,70.639,70.639,0,0,1-22.382,5.526V294.89S215.156,280.592,224.107,276Zm94.557,45.737,32.114-6.812c-3.5-14.986-7.785-30.751-12.651-47.684l-32.114,6.812c5.06,17.322,9.147,32.5,12.651,47.684ZM241.008,192.31c5.255,6.617,10.7,13.819,15.96,20.631-1.557,1.752-3.5,3.5-5.255,5.255-5.45-7.2-11.288-14.4-16.738-21.409a69.136,69.136,0,0,0,6.033-4.476Zm38.926-12.651a92.023,92.023,0,0,1-7.007,12.845L263,179.659Zm74.738-10.121v-6.423c6.228,3.893,12.067,7.785,17.711,11.678H354.671Z" transform="translate(556.207 398.046)" fill="#00a65d"/>
    <path id="path57" d="M134.045,205.461h19.708a109.4,109.4,0,0,0-1.037-16.492c5.6-1.452,11.928-2.9,18.878-4.149l-2.8-15.973c-7.676,1.348-14.625,2.9-21.056,4.668-3.942-6.224-9.958-9.024-18.463-9.024a53.536,53.536,0,0,0-13.173,1.763c.933-1.971,1.971-3.941,2.9-5.912H166.2V144.783H125.54c.83-1.971,1.556-4.045,2.282-6.223l-19.708-3.112q-1.556,4.979-3.112,9.335H82.183v15.559H98.675a198.055,198.055,0,0,1-17.529,29.043l16.077,9.335c9.439-15.144,16.492-20.745,25.931-20.745,2.593,0,4.668.415,6.223,1.66-18.463,7.676-28.421,17.633-28.421,28.939,0,12.758,12.862,20.226,34.644,20.226a244.454,244.454,0,0,0,34.644-3.215L167.859,209.2c-14.418,2.386-24.479,3.527-32.051,3.527-10.165,0-15.144-1.971-15.144-6.016,0-3.941,4.564-7.883,13.173-11.617.1,3.008.207,6.431.207,10.372Z" transform="translate(875.04 401.531)" fill="#333"/>
    <path id="path58" d="M135.26,224.423l5.7,17.115c21.471-2.9,35.266-19.5,35.266-42.527,0-26.554-19.085-41.49-45.224-41.49-29.562,0-50.2,19.189-50.2,46.676,0,20.538,11.306,35.266,26.968,35.266,16.492,0,24.894-15.87,32.051-63.168,10.372,2.9,17.218,10.891,17.218,22.716,0,13.692-8.4,23.442-21.782,25.412Zm-14.936-47.61c-4.045,27.383-8.92,42.942-13.588,42.942-3.527,0-7.779-8.505-7.779-15.559,0-12.447,9.128-23.338,21.367-27.383ZM242.615,244.13a102.858,102.858,0,0,0,21.782-2.074l-2.074-16.6a84.131,84.131,0,0,1-18.671,2.075c-13.8,0-19.708-2.7-19.708-9.024,0-7.676,8.817-10.787,33.192-11.825l14.521-.622-.622-16.6-46.158,3.319a164.28,164.28,0,0,0,30.184-18.359c.726,1.245,1.348,2.593,2.074,4.045l10.995-5.6a98.659,98.659,0,0,0-11.617-19.708l-8.92,4.875H192.828v16.6h36.615c-10.995,9.543-26.035,15.247-47.61,18.255l.622,16.6,29.665-2.074c-6.223,4.253-8.92,8.92-8.92,15.04,0,13.9,14.21,21.678,39.415,21.678Zm29.976-71.259,10.995-5.082a103.508,103.508,0,0,0-10.995-20.123l-10.891,5.6A109.044,109.044,0,0,1,272.592,172.871Zm87.855,74.89,10.787-16.077c-9.958-6.327-36.2-21.575-43.979-25.62-10.269-5.7-10.995-6.224-10.995-8.09,0-1.556,2.386-3.112,11.721-7.883,6.742-3.527,31.221-16.492,40.245-21.678l-10.269-16.077c-9.231,5.7-26.346,15.455-40.66,23.027-20.538,11.1-23.857,14.21-23.857,22.612,0,8.194,2.7,10.787,24.064,23.442,19.708,11.825,28.835,17.426,42.942,26.346Z" transform="translate(872.891 478.626)" fill="#333"/>
    <path id="path59" d="M127.123,143.776l.525-.287a16.388,16.388,0,0,1,21.895,6.038l66.923,113.7a15.194,15.194,0,0,1-5.852,21.218l-.525.287a16.388,16.388,0,0,1-21.895-6.038l-66.923-113.7A15.193,15.193,0,0,1,127.123,143.776Z" transform="translate(1114.55 439.744)" fill="#333"/>
    <path id="path60" d="M275.374,137.687A137.687,137.687,0,1,1,137.687,0,137.687,137.687,0,0,1,275.374,137.687Z" transform="translate(1122.923 309.662) rotate(23.83)" fill="#4f7eff" stroke="#333" stroke-width="0.6"/>
    <path id="path61" d="M46.431,0A137.11,137.11,0,0,0,1.466,122.836L17.7,109.14l16.636,26,27.035-34.1H82.124l32.281-37.132V32.712h24.953V10.875ZM159.953,9.625V30.944H223.9l44.191,96.546,7.279-24.5a137.686,137.686,0,0,0-36.5-93.367Zm-36.07,56.94L102.045,90.43H116.6l21.319-23.865Zm-64.257,53.7v14.46H80.654V120.26Zm39.5,0v15.068h39.1Zm168.671,14.766v12.741q2.076-5.983,3.6-12.137ZM118.93,150,70.38,171.323v24.534h96.591V171.323Zm59.135,54.473-.306,16.02h12.783v-16.02Z" transform="translate(1108.906 341.391) rotate(23.83)" fill="#98dbb2" stroke="#333" stroke-width="0.6"/>
  </g>
</svg>
